<?xml version="1.0" standalone="no"?>
<!DOCTYPE svg PUBLIC "-//W3C//DTD SVG 20010904//EN"
 "http://www.w3.org/TR/2001/REC-SVG-20010904/DTD/svg10.dtd">
<svg version="1.0" xmlns="http://www.w3.org/2000/svg"
 width="128.000000pt" height="128.000000pt" viewBox="0 0 128.000000 128.000000"
 preserveAspectRatio="xMidYMid meet">

<g transform="translate(0.000000,128.000000) scale(0.100000,-0.100000)"
fill="#000000" stroke="none">
<path d="M1000 1267 c0 -8 23 -28 50 -46 89 -58 129 -130 130 -237 0 -66 6
-80 27 -63 8 7 13 34 13 73 0 106 -71 220 -169 270 -37 20 -51 20 -51 3z"/>
<path d="M947 1213 c-13 -12 -7 -20 42 -52 68 -43 106 -119 98 -191 -5 -44 -4
-50 13 -50 14 0 20 10 25 43 13 87 -36 183 -118 231 -48 28 -50 29 -60 19z"/>
<path d="M880 1135 c0 -8 11 -17 25 -21 14 -3 39 -22 56 -42 29 -32 31 -40 27
-93 -3 -42 -1 -60 9 -63 36 -14 46 106 12 160 -34 56 -129 99 -129 59z"/>
<path d="M504 1086 c-118 -27 -203 -88 -244 -175 l-23 -51 -68 0 -67 0 -47
-62 -46 -63 96 -3 c52 -1 95 -5 95 -8 0 -4 -172 -631 -186 -676 -5 -17 5 -18
118 -18 135 0 187 10 234 45 41 31 52 59 144 370 44 148 84 273 88 277 4 4
113 9 241 10 l234 3 18 63 17 62 -239 0 c-160 0 -239 3 -239 10 0 22 49 59 91
70 24 7 66 9 94 6 27 -3 61 -7 75 -8 18 -2 28 4 39 27 13 26 12 33 -5 64 -13
25 -31 40 -59 50 -57 20 -284 24 -361 7z"/>
<path d="M802 654 c-43 -36 -56 -68 -25 -62 13 2 81 98 70 98 -2 0 -22 -16
-45 -36z"/>
<path d="M962 622 c-43 -37 -54 -62 -28 -62 14 0 41 32 65 78 15 29 14 28 -37
-16z"/>
<path d="M658 579 c-27 -27 -38 -43 -30 -46 7 -3 18 -3 25 0 12 5 63 87 53 87
-3 0 -24 -19 -48 -41z"/>
<path d="M833 564 c-43 -36 -55 -64 -28 -64 13 0 31 23 69 88 11 18 5 15 -41
-24z"/>
<path d="M587 488 c-31 -11 -31 -35 -1 -30 70 13 94 13 122 -2 40 -20 109 -20
158 0 37 15 91 15 127 0 24 -11 23 20 -2 34 -28 15 -96 12 -138 -5 -45 -19
-93 -19 -129 0 -33 17 -95 18 -137 3z"/>
<path d="M577 418 c-31 -11 -31 -35 -1 -30 70 13 94 13 122 -2 40 -20 109 -20
158 0 36 15 72 15 122 -1 17 -6 22 -3 22 9 0 35 -93 47 -157 21 -44 -19 -100
-19 -133 0 -29 16 -92 18 -133 3z"/>
</g>
</svg>
